<?xml version="1.0" encoding="UTF-8"?>
<svg id="Layer_1" data-name="Layer 1" xmlns="http://www.w3.org/2000/svg" version="1.1" xmlns:xlink="http://www.w3.org/1999/xlink" viewBox="0 0 126 30">
  <defs>
    <style>
      .cls-1 {
        fill: #1e1e1e;
      }

      .cls-1, .cls-2, .cls-3, .cls-4, .cls-5, .cls-6 {
        stroke-width: 0px;
      }

      .cls-1, .cls-2, .cls-3, .cls-5 {
        display: none;
      }

      .cls-2 {
        fill: url(#linear-gradient);
        fill-opacity: .2;
      }

      .cls-3 {
        fill: #ecfbff;
      }

      .cls-4, .cls-5 {
        fill: none;
      }

      .cls-7 {
        clip-path: url(#clippath);
      }

      .cls-6 {
        fill: #fff;
      }
    </style>
    <clipPath id="clippath">
      <rect class="cls-4" x="-170" y="-44" width="1440" height="9086"/>
    </clipPath>
    <linearGradient id="linear-gradient" x1="550" y1="77" x2="550" y2="-75" gradientTransform="translate(0 32) scale(1 -1)" gradientUnits="userSpaceOnUse">
      <stop offset="0" stop-color="#000"/>
      <stop offset="1" stop-color="#000" stop-opacity="0"/>
    </linearGradient>
  </defs>
  <rect class="cls-1" width="126" height="30"/>
  <g class="cls-7">
    <g>
      <rect class="cls-3" x="-170" y="-44" width="1440" height="9086"/>
      <rect class="cls-5" x="-170" y="-45" width="1440" height="791"/>
      <rect class="cls-2" x="-170" y="-45" width="1440" height="791"/>
      <path class="cls-6" d="M7.8,23.6c-1.4,0-2.7-.3-3.7-.8-1-.5-1.8-1.3-2.4-2.3-.6-1-1.1-2.2-1.3-3.5-.3-1.4-.4-3-.4-4.7s.1-3.3.4-4.7c.3-1.4.7-2.7,1.3-3.7.6-1,1.4-1.8,2.4-2.4,1-.6,2.2-.8,3.6-.8s2.3.2,3.2.6c.9.4,1.6,1,2.1,1.8.5.8.9,1.6,1,2.6.2,1,.2,2,.1,3.2l-4.2.6c.1-1.1,0-2.1-.1-2.8-.2-.8-.5-1.4-.9-1.7-.4-.4-.8-.6-1.4-.6s-.9.2-1.3.5c-.4.3-.7.7-1,1.4-.2.6-.4,1.4-.6,2.4-.1,1-.2,2.1-.2,3.4,0,2,.1,3.5.4,4.7.3,1.2.6,2,1.1,2.6.5.5,1.1.8,1.7.8s1.3-.3,1.7-.9c.4-.6.7-1.4.8-2.3.2-1,.2-2,.1-3.2l4.2.5c.2,1.4.1,2.7,0,3.9-.2,1.2-.5,2.2-1.1,3-.5.8-1.3,1.5-2.2,2-.9.4-2.1.7-3.4.7Z"/>
      <path class="cls-6" d="M16.2,23.2V0s4.4,0,4.4,0v3.7c0,.5,0,1.1,0,1.7,0,.7-.1,1.4-.2,2.1,0,.7-.1,1.4-.2,2.1,0,.7-.2,1.3-.3,1.9h.5c.2-1.6.5-2.8.8-3.7.4-.9.9-1.6,1.5-2,.6-.4,1.4-.6,2.2-.6,1.5,0,2.6.6,3.3,1.8.7,1.2,1.1,3,1.1,5.5v10.7h-4.5v-10.1c0-1.4-.1-2.4-.4-3-.2-.6-.7-.9-1.3-.9s-1,.3-1.3.8c-.3.5-.6,1.2-.7,2.1-.2.9-.2,1.9-.2,3.1v8h-4.5Z"/>
      <path class="cls-6" d="M34.6,23.6c-.8,0-1.4-.2-2.1-.5-.6-.3-1.1-.8-1.5-1.5-.4-.7-.6-1.5-.6-2.5s.2-1.7.5-2.3c.3-.6.8-1.2,1.3-1.6.6-.4,1.2-.8,1.8-1,.7-.3,1.4-.5,2.1-.8.7-.2,1.2-.4,1.6-.6.4-.2.7-.4.9-.7.2-.3.3-.7.3-1.2s-.2-1.2-.5-1.6c-.3-.4-.7-.6-1.3-.6s-.8.1-1.1.4c-.3.3-.5.7-.7,1.2-.2.5-.2,1.2-.2,2l-4.2-.5c0-1.1.1-2,.4-2.8.3-.8.7-1.5,1.2-2.1.6-.6,1.2-1,2-1.3.8-.3,1.8-.4,2.8-.4s2.5.3,3.4.8c.9.5,1.5,1.3,2,2.4.4,1,.7,2.4.7,4v4.2c0,.7,0,1.4,0,2.2,0,.8,0,1.5,0,2.3,0,.8,0,1.5.1,2.2h-3.9c0-.8-.1-1.5-.2-2.2,0-.8,0-1.5,0-2.3h-.4c-.2,1-.4,1.9-.8,2.7-.4.7-.9,1.3-1.5,1.7-.6.4-1.3.6-2.1.6ZM36.4,20c.3,0,.6,0,.9-.2.3-.2.5-.4.8-.7.2-.3.4-.7.5-1.1.2-.4.3-.8.3-1.3v-2.7l.9-.2c-.2.3-.5.5-.9.7-.3.2-.7.4-1.1.5s-.8.3-1.1.5c-.4.2-.7.3-1,.6-.3.2-.5.5-.7.8-.2.3-.3.7-.3,1.2s.2,1.1.5,1.4c.3.3.7.4,1.2.4Z"/>
      <path class="cls-6" d="M45.4,23.2V5.5s3.8,0,3.8,0v6.6s.5,0,.5,0c0-1.7.3-3,.6-4,.4-1,.9-1.7,1.5-2.2.6-.4,1.3-.7,2.1-.7s.3,0,.5,0c.2,0,.3,0,.5.1l-.2,5c-.2,0-.4-.1-.6-.2-.2,0-.4,0-.6,0-.6,0-1.2.2-1.8.6-.5.4-.9,1-1.2,1.8-.3.8-.5,1.9-.5,3.1v7.3h-4.6Z"/>
      <path class="cls-6" d="M61.9,23.5c-1.7,0-3-.5-3.8-1.4-.9-1-1.3-2.4-1.3-4.4v-8.6h-1.6v-3.3h.7c.8,0,1.3-.2,1.6-.5.3-.3.5-.8.6-1.5l.2-1.8h2.8v3.5h2.9v3.6h-2.9v7.7c0,.8.1,1.4.4,1.8.3.4.7.6,1.2.6s.4,0,.7,0c.2,0,.5-.2.7-.3v4.3c-.4.1-.8.2-1.1.2-.4,0-.7.1-1.1.1Z"/>
      <path class="cls-6" d="M71.8,23.6c-1.3,0-2.4-.2-3.3-.7-.9-.4-1.6-1.1-2.2-1.8-.5-.8-.9-1.7-1.2-2.8-.2-1.1-.3-2.3-.3-3.6s.1-2.4.3-3.6c.2-1.1.6-2.2,1.1-3,.5-.9,1.2-1.6,2.1-2.1.9-.5,1.9-.8,3.2-.8s2.2.2,3.1.7c.8.5,1.5,1.1,2,2,.5.8.8,1.9,1,3.1.2,1.2.2,2.5,0,3.9l-9.7.2v-2.3l6.2-.2-.7,1.3c.1-1.2.1-2.2,0-3-.1-.8-.4-1.3-.7-1.7-.3-.4-.7-.5-1.2-.5s-1,.2-1.3.7c-.3.4-.6,1-.7,1.9-.2.8-.2,1.8-.2,3,0,2,.2,3.5.6,4.5.4,1,1,1.4,1.9,1.4s.7,0,.9-.2c.3-.2.5-.4.6-.7.2-.3.3-.7.3-1.1,0-.4,0-.9,0-1.4l4.1.4c0,.8,0,1.5-.1,2.3-.2.8-.5,1.5-.9,2.1-.4.6-1.1,1.1-1.9,1.5-.8.4-1.8.6-3.1.6Z"/>
      <path class="cls-6" d="M79.3,23.2V5.5s3.8,0,3.8,0v6.6s.5,0,.5,0c0-1.7.3-3,.6-4,.4-1,.9-1.7,1.5-2.2.6-.4,1.3-.7,2.1-.7s.3,0,.5,0c.2,0,.3,0,.5.1l-.2,5c-.2,0-.4-.1-.6-.2-.2,0-.4,0-.6,0-.6,0-1.2.2-1.8.6-.5.4-.9,1-1.2,1.8-.3.8-.5,1.9-.5,3.1v7.3h-4.6Z"/>
      <path class="cls-6" d="M95,23.6c-2.9,0-5-1.7-5-4.9s2.8-4.9,8.3-5.7c2.2-.3,3.2-.5,3.2-1.9s-.9-2.5-3-2.5-3.8,1-4.2,3.3l-3.8-1.2c.9-3.5,3.8-5.4,8.1-5.4s7.1,2.3,7.1,7.5v3.3c0,2.3.1,4.9.4,7.2h-3.8c-.2-1.2-.3-2.7-.4-4.2h-.5c-.9,2.5-3.1,4.6-6.3,4.6ZM96.7,20.5c1.7,0,3.8-1.2,4.9-3.7v-2.3c-2.7,1.2-7.5.4-7.5,3.6s1.1,2.4,2.6,2.4Z"/>
      <path class="cls-6" d="M116.3,29.2c-5.7,0-8.2-1.3-8.2-3.9s1.6-3.4,4.8-3.7v-.7c-2.4,0-3.7-.5-3.7-1.7s1.1-2.1,4-2.8v-.7c-2.7-.1-4.3-1.8-4.3-4.4s2.8-5.8,8.1-5.8h8.7v3.3l-5.5-.8v.7c2.7.4,4,1.5,4,3.4,0,2.8-2.7,4.6-7.4,4.6s-1.1,0-2.5-.2c-1,.7-1.6,1.2-1.6,1.6s1.2.8,2.2.8h4.6c1.8,0,6.3.1,6.3,4.6s-3.2,5.5-9.7,5.5ZM116.8,14.6c2.3,0,3.5-1.2,3.5-3s-1.2-3.3-3.6-3.3-3.6,1.3-3.6,3.2,1.3,3,3.7,3ZM116.7,25.8c4.1,0,5.6-.7,5.6-2.3s-2.2-2-3.1-2h-4.1c-2.1.3-2.9,1.3-2.9,2.4,0,1.6,1.7,1.9,4.5,1.9Z"/>
    </g>
  </g>
</svg>