<svg width="32" height="33" viewBox="0 0 32 33" fill="none" xmlns="http://www.w3.org/2000/svg">
<g clip-path="url(#clip0_5_2548)">
<path d="M17.8889 3.85205C17.5177 3.85205 17.2169 4.10277 17.2169 4.41205L17.2172 4.98213L16.3156 4.98325C15.432 4.98325 15.9509 5.99912 16.2695 6.09587L16.3156 6.10325L17.2172 6.10213L17.2169 6.65205C17.2169 6.9304 17.4606 7.16132 17.7799 7.20472L17.8889 7.21205C18.26 7.21205 18.5609 6.96133 18.5609 6.65205L18.5612 6.10213H22.8172L22.8169 6.65205C22.8169 6.9304 23.0606 7.16132 23.3798 7.20472L23.4889 7.21205C23.86 7.21205 24.1609 6.96133 24.1609 6.65205L24.1612 6.10213L25.8356 6.10325C26.1105 6.10325 26.3392 6.30135 26.3866 6.56259L26.3956 6.66325V9.45205H16.3156V10.5721H26.3956V15.6121C26.3956 15.9213 26.1449 16.1721 25.8356 16.1721H19.1303C18.821 16.1721 18.5703 16.4228 18.5703 16.7321C18.5703 17.0413 18.821 17.2921 19.1303 17.2921H25.8356C26.7635 17.2921 27.5156 16.5399 27.5156 15.6121V6.66325C27.5156 5.73541 26.7635 4.98325 25.8356 4.98325L24.1612 4.98213L24.1609 4.41205C24.1609 4.1337 23.9172 3.90278 23.5979 3.85938L23.4889 3.85205C23.1177 3.85205 22.8169 4.10277 22.8169 4.41205L22.8172 4.98213H18.5612L18.5609 4.41205C18.5609 4.1337 18.3172 3.90278 17.9979 3.85938L17.8889 3.85205Z" fill="#062949" stroke="#062949" stroke-width="0.5"/>
<path d="M9.87172 11.4129C11.7274 11.4129 13.2317 9.90855 13.2317 8.05287C13.2317 6.19719 11.7274 4.69287 9.87172 4.69287C8.01604 4.69287 6.51172 6.19719 6.51172 8.05287C6.51172 9.90855 8.01604 11.4129 9.87172 11.4129Z" stroke="#062949" stroke-width="1.5" stroke-linecap="round" stroke-linejoin="round"/>
<path fill-rule="evenodd" clip-rule="evenodd" d="M12.392 29.8933L13.232 21.4933H14.912V18.1333C14.912 15.3497 12.6555 13.0933 9.87203 13.0933C7.08852 13.0933 4.83203 15.3497 4.83203 18.1333V21.4933H6.51203L7.35203 29.8933H12.392Z" stroke="#062949" stroke-width="1.5" stroke-linecap="round" stroke-linejoin="round"/>
</g>
<defs>
<clipPath id="clip0_5_2548">
<rect width="24.64" height="28" fill="white" transform="translate(4 2.73193)"/>
</clipPath>
</defs>
</svg>
