<svg width="24" height="23" viewBox="0 0 24 23" fill="none" xmlns="http://www.w3.org/2000/svg">
<path d="M8.40028 21.1451H14.1615" stroke="#062949" stroke-width="0.900043" stroke-linecap="round" stroke-linejoin="round"/>
<path d="M11.283 21.1444V12.8725" stroke="#062949" stroke-width="0.900043" stroke-linecap="round" stroke-linejoin="round"/>
<path fill-rule="evenodd" clip-rule="evenodd" d="M18.6972 5.77656C18.903 5.57941 18.9644 5.28312 18.8531 5.02568C18.7417 4.76824 18.4794 4.60028 18.1883 4.60004H4.38063C4.08953 4.60028 3.82721 4.76824 3.71585 5.02568C3.60449 5.28312 3.66598 5.57941 3.87169 5.77656L11.2849 12.8725L18.6972 5.77656Z" stroke="#062949" stroke-width="0.900043" stroke-linecap="round" stroke-linejoin="round"/>
<path d="M1.2001 0.463318H3.90981C4.45545 0.463162 4.95433 0.758146 5.19841 1.22525L6.96135 4.59928" stroke="#062949" stroke-width="0.900043" stroke-linecap="round" stroke-linejoin="round"/>
<path d="M15.6774 4.60005C15.6295 4.37283 15.6054 4.14161 15.6054 3.90981C15.607 2.36037 16.6895 1.00276 18.2505 0.592436C19.8114 0.18211 21.4664 0.820101 22.2946 2.1514C23.1228 3.4827 22.9202 5.17948 21.7995 6.29757C20.6789 7.41566 18.9161 7.67973 17.4922 6.94285" stroke="#062949" stroke-width="0.900043" stroke-linecap="round" stroke-linejoin="round"/>
</svg>
