<svg width="43" height="43" viewBox="0 0 43 43" fill="none" xmlns="http://www.w3.org/2000/svg">
<path fill-rule="evenodd" clip-rule="evenodd" d="M42.1839 21.234C42.1839 32.7099 32.8808 42.013 21.4049 42.013C9.92903 42.013 0.625977 32.7099 0.625977 21.234C0.625977 9.75813 9.92903 0.455078 21.4049 0.455078C32.8808 0.455078 42.1839 9.75813 42.1839 21.234ZM23.5599 6.83301H28.1629H28.1652V11.8004C27.9016 11.802 27.1177 11.8014 26.3999 11.8009C26.0647 11.8006 25.7439 11.8004 25.4972 11.8004C25.4939 11.8004 25.4886 11.8003 25.4817 11.8002C25.2885 11.7962 23.7711 11.765 23.7711 13.2755C23.781 13.9146 23.7711 16.1154 23.7711 16.1154H28.1831L27.8256 21.0626H23.8743V35.6348H17.8878V21.1581H14.6299V16.1295H17.79C17.79 15.6233 17.7915 15.1362 17.793 14.6596C17.796 13.736 17.7988 12.8514 17.79 11.9415C17.79 7.98188 20.8283 6.83301 23.5599 6.83301Z" fill="white"/>
</svg>
