<svg width="39" height="39" viewBox="0 0 39 39" fill="none" xmlns="http://www.w3.org/2000/svg">
<path d="M37.5667 19.6451C37.5667 18.2944 37.4455 16.9958 37.2204 15.749H19.2812V23.1256H29.5322C29.082 25.4978 27.7314 27.5064 25.7054 28.8571V33.6536H31.8871C35.4888 30.3289 37.5667 25.4459 37.5667 19.6451Z" fill="white"/>
<path d="M19.2815 38.2577C24.4242 38.2577 28.7359 36.5608 31.8874 33.6517L25.7056 28.8553C24.0087 29.9981 21.8442 30.6907 19.2815 30.6907C14.3291 30.6907 10.1214 27.3488 8.61492 22.8467H2.27734V27.7644C5.4115 33.9807 11.8357 38.2577 19.2815 38.2577Z" fill="white"/>
<path d="M8.61522 22.8315C8.23427 21.6886 8.00917 20.4765 8.00917 19.2125C8.00917 17.9484 8.23427 16.7363 8.61522 15.5935V10.6758H2.27764C0.978954 13.2385 0.234375 16.1303 0.234375 19.2125C0.234375 22.2947 0.978954 25.1864 2.27764 27.7492L7.21264 23.905L8.61522 22.8315Z" fill="white"/>
<path d="M19.2815 7.74838C22.0866 7.74838 24.5801 8.71807 26.5714 10.5882L32.0259 5.1337C28.7186 2.05148 24.4242 0.164062 19.2815 0.164062C11.8357 0.164062 5.4115 4.44106 2.27734 10.6748L8.61493 15.5924C10.1214 11.0903 14.3291 7.74838 19.2815 7.74838Z" fill="white"/>
</svg>
