<svg width="29" height="30" viewBox="0 0 29 30" fill="none" xmlns="http://www.w3.org/2000/svg">
<path d="M5.5 10.2686C6.88071 10.2686 8 9.14927 8 7.76855C8 6.38784 6.88071 5.26855 5.5 5.26855C4.11929 5.26855 3 6.38784 3 7.76855C3 9.14927 4.11929 10.2686 5.5 10.2686Z" stroke="#062949" stroke-width="1.5" stroke-linecap="round" stroke-linejoin="round"/>
<path d="M6 12.2686C3.23858 12.2686 1 14.2273 1 16.6436V19.2686H3L4 26.2686H8" stroke="#062949" stroke-width="1.5" stroke-linecap="round" stroke-linejoin="round"/>
<path d="M23.5 10.2686C24.8807 10.2686 26 9.14927 26 7.76855C26 6.38784 24.8807 5.26855 23.5 5.26855C22.1193 5.26855 21 6.38784 21 7.76855C21 9.14927 22.1193 10.2686 23.5 10.2686Z" stroke="#062949" stroke-width="1.5" stroke-linecap="round" stroke-linejoin="round"/>
<path d="M23 12.2686C25.7614 12.2686 28 14.2273 28 16.6436V19.2686H26L25 26.2686H21" stroke="#062949" stroke-width="1.5" stroke-linecap="round" stroke-linejoin="round"/>
<path d="M14.5 8.26855C16.433 8.26855 18 6.70155 18 4.76855C18 2.83556 16.433 1.26855 14.5 1.26855C12.567 1.26855 11 2.83556 11 4.76855C11 6.70155 12.567 8.26855 14.5 8.26855Z" stroke="#062949" stroke-width="1.5" stroke-linecap="round" stroke-linejoin="round"/>
<path fill-rule="evenodd" clip-rule="evenodd" d="M21 16.5686C21 13.0892 18.0899 10.2686 14.5 10.2686C10.9101 10.2686 8 13.0892 8 16.5686V19.2686H10.7857L11.7143 28.2686H17.2857L18.2143 19.2686H21V16.5686Z" stroke="#062949" stroke-width="1.5" stroke-linecap="round" stroke-linejoin="round"/>
</svg>
