<svg width="16" height="17" viewBox="0 0 16 17" fill="none" xmlns="http://www.w3.org/2000/svg">
<path fill-rule="evenodd" clip-rule="evenodd" d="M7.99334 0.50293C5.82182 0.50293 5.54871 0.50293 4.69609 0.549655C3.85012 0.589705 3.26395 0.723205 2.76436 0.923455C2.23147 1.12371 1.77852 1.40406 1.33222 1.83793C0.905912 2.30518 0.632806 2.74573 0.426311 3.27306C0.226478 3.78036 0.0932556 4.36776 0.0532889 5.20881C0 6.07656 0 6.34356 0 8.51294C0 10.6823 0 10.9627 0.0466278 11.8171C0.0865945 12.6648 0.219817 13.2522 0.41965 13.7528C0.619484 14.2868 0.899251 14.7341 1.33888 15.1813C1.80516 15.5951 2.25812 15.8688 2.78435 16.0757C3.29059 16.276 3.87677 16.4095 4.71607 16.4495C5.58202 16.4963 5.84846 16.5029 8.01998 16.5029C10.1915 16.5029 10.4713 16.5029 11.3239 16.4495C12.1632 16.4095 12.7494 16.276 13.2556 16.0757C13.7885 15.8755 14.2281 15.5951 14.6744 15.1546C15.1074 14.7007 15.3805 14.2535 15.587 13.7261C15.7868 13.2188 15.9201 12.6314 15.9534 11.7904C15.9933 10.9226 16 10.6556 16 8.47957C16 6.30351 16 6.02984 15.9534 5.17544C15.9134 4.34106 15.7802 3.75366 15.5803 3.23968C15.3805 2.70568 15.0874 2.27181 14.6478 1.82458C14.1882 1.37068 13.7552 1.10368 13.229 0.90343C12.7227 0.70318 12.1366 0.56968 11.2973 0.522955C10.438 0.50293 10.1715 0.50293 7.99334 0.50293ZM7.99301 1.94434C10.1246 1.94434 10.3777 1.94434 11.2237 1.99106C12.003 2.03111 12.4227 2.15794 12.7091 2.27141C13.0821 2.40491 13.3486 2.58514 13.6283 2.87216C13.9081 3.13916 14.0813 3.40616 14.2278 3.78664C14.3344 4.07366 14.461 4.49419 14.4943 5.27517C14.5409 6.12289 14.5476 6.37654 14.5476 8.51255C14.5476 10.6486 14.5476 10.9022 14.5009 11.7499C14.461 12.5309 14.3344 12.9514 14.2212 13.2385C14.0879 13.6123 13.9081 13.8793 13.6217 14.1596C13.3552 14.44 13.0888 14.6135 12.7091 14.7604C12.4227 14.8672 12.003 14.994 11.2237 15.0274C10.3777 15.0741 10.1246 15.0808 7.99301 15.0808C5.86146 15.0808 5.60833 15.0808 4.76237 15.034C3.98302 14.994 3.56337 14.8672 3.27694 14.7537C2.90392 14.6202 2.63748 14.44 2.35771 14.1529C2.07794 13.8859 1.90475 13.6189 1.75821 13.2385C1.65163 12.9514 1.52507 12.5309 1.49177 11.7499C1.44514 10.9022 1.43848 10.6486 1.43848 8.51255C1.43848 6.37654 1.43848 6.12289 1.4851 5.27517C1.52507 4.49419 1.65163 4.07366 1.76487 3.78664C1.89809 3.41284 2.07794 3.14584 2.36437 2.86549C2.63082 2.58514 2.89726 2.41159 3.27694 2.26474C3.56337 2.15794 3.98302 2.03111 4.76237 1.99774C5.60833 1.95101 5.86146 1.94434 7.99301 1.94434ZM3.88965 8.51317C3.88965 6.24367 5.72812 4.40137 7.9929 4.40137C10.2577 4.40137 12.0961 6.24367 12.0961 8.51317C12.0961 10.7827 10.2577 12.625 7.9929 12.625C5.72812 12.625 3.88965 10.7827 3.88965 8.51317ZM7.99334 11.1829C6.52789 11.1829 5.32889 9.98144 5.32889 8.51294C5.32889 7.04444 6.52789 5.84294 7.99334 5.84294C9.45878 5.84294 10.6578 7.04444 10.6578 8.51294C10.6578 9.98144 9.45878 11.1829 7.99334 11.1829ZM12.2626 5.19617C12.7889 5.19617 13.2218 4.77565 13.2218 4.24165L13.2551 4.20827C13.2551 3.68095 12.8222 3.24707 12.2893 3.24707C11.7564 3.24707 11.3301 3.70097 11.3301 4.23497C11.3301 4.76897 11.7297 5.19617 12.2626 5.19617Z" fill="white"/>
</svg>
