<svg width="34" height="22" viewBox="0 0 34 22" fill="none" xmlns="http://www.w3.org/2000/svg">
<path d="M31.875 0.976562H2.125C1.56141 0.976562 1.02091 1.19781 0.622398 1.59164C0.223883 1.98547 0 2.51961 0 3.07656V19.8766C0 20.4335 0.223883 20.9677 0.622398 21.3615C1.02091 21.7553 1.56141 21.9766 2.125 21.9766H31.875C32.4386 21.9766 32.9791 21.7553 33.3776 21.3615C33.7761 20.9677 34 20.4335 34 19.8766V3.07656C34 2.51961 33.7761 1.98547 33.3776 1.59164C32.9791 1.19781 32.4386 0.976563 31.875 0.976562ZM31.875 7.27656C30.7874 7.18942 29.7685 6.71603 29.0067 5.94393C28.245 5.17183 27.7919 4.15325 27.7313 3.07656H31.875V7.27656ZM31.875 8.97756V14.0491C30.3451 14.1398 28.9026 14.7842 27.8228 15.859C26.7429 16.9339 26.1014 18.364 26.0206 19.8766H7.95812C7.88036 18.3656 7.24295 16.9356 6.16729 15.8591C5.09162 14.7825 3.65286 14.1346 2.125 14.0386V8.95656C3.66359 8.86463 5.11323 8.2129 6.1943 7.1271C7.27538 6.0413 7.91129 4.59834 7.97938 3.07656H26.0419C26.1095 4.59495 26.7424 6.03511 27.8191 7.12042C28.8957 8.20573 30.3402 8.85964 31.875 8.95656V8.97756ZM6.26875 3.07656C6.20813 4.15325 5.75505 5.17183 4.99329 5.94393C4.23153 6.71603 3.21262 7.18942 2.125 7.27656V3.07656H6.26875ZM2.125 15.7396C3.20238 15.8249 4.21304 16.2893 4.9734 17.0485C5.73376 17.8076 6.19337 18.811 6.26875 19.8766H2.125V15.7396ZM27.7313 19.8766C27.8066 18.811 28.2662 17.8076 29.0266 17.0485C29.787 16.2893 30.7976 15.8249 31.875 15.7396V19.8766H27.7313Z" fill="#1DC072"/>
</svg>
