<svg width="26" height="25" viewBox="0 0 26 25" fill="none" xmlns="http://www.w3.org/2000/svg">
<path d="M1.29962 23.9189C3.01499 24.1308 4.73455 23.5587 5.97947 22.3618C6.87606 23.3531 8.15139 23.9188 9.48935 23.9188C10.8273 23.9188 12.1026 23.3531 12.9992 22.3618C13.8958 23.3531 15.1712 23.9188 16.5091 23.9188C17.8471 23.9188 19.1224 23.3531 20.019 22.3618C21.2639 23.5587 22.9835 24.1308 24.6988 23.9189" stroke="#062949" stroke-width="0.974971" stroke-linecap="round" stroke-linejoin="round"/>
<path d="M23.1466 20.8132C23.7701 20.2406 24.275 19.5514 24.6327 18.7848C24.7397 18.5439 24.7173 18.2654 24.5734 18.0445C24.4294 17.8237 24.1832 17.6905 23.9193 17.6907H2.07999C1.81601 17.6905 1.56988 17.8237 1.42589 18.0445C1.28189 18.2654 1.25957 18.5439 1.36657 18.7848C1.7989 19.7017 2.43396 20.5088 3.22395 21.1453" stroke="#062949" stroke-width="0.974971" stroke-linecap="round" stroke-linejoin="round"/>
<path d="M12.2173 17.6915V1.87867C12.2175 1.3114 11.8533 0.807949 11.3138 0.629696C10.7742 0.451442 10.181 0.638557 9.84207 1.09389L2.8795 11.8129C2.72231 12.0524 2.7095 12.3587 2.84613 12.6104C2.98277 12.8622 3.2468 13.0188 3.53364 13.0181L12.2153 13.0057" stroke="#062949" stroke-width="0.974971" stroke-linecap="round" stroke-linejoin="round"/>
<path fill-rule="evenodd" clip-rule="evenodd" d="M16.776 5.90711C16.5889 5.61631 16.232 5.4835 15.8998 5.58099C15.5676 5.67848 15.3396 5.98292 15.3398 6.32856V14.577H20.9307C21.2159 14.5765 21.4781 14.4208 21.6147 14.1709C21.7514 13.9211 21.7407 13.6167 21.5869 13.377L16.776 5.90711Z" stroke="#062949" stroke-width="0.974971" stroke-linecap="round" stroke-linejoin="round"/>
</svg>
