<svg width="19" height="19" viewBox="0 0 19 19" fill="none" xmlns="http://www.w3.org/2000/svg">
<path d="M9.1976 0.307202C9.23294 0.00957833 9.66481 0.00957833 9.70016 0.307202L9.99642 2.804C10.379 6.02804 12.9209 8.56995 16.1449 8.95249L18.6417 9.24874C18.9393 9.28409 18.9393 9.71596 18.6417 9.75131L16.1449 10.0476C12.9209 10.4301 10.379 12.972 9.99642 16.196L9.70016 18.6928C9.66481 18.9905 9.23294 18.9905 9.1976 18.6928L8.90134 16.196C8.5188 12.972 5.97689 10.4301 2.75285 10.0476L0.256055 9.75131C-0.0415691 9.71596 -0.0415691 9.28409 0.256055 9.24874L2.75285 8.95249C5.97689 8.56995 8.5188 6.02804 8.90134 2.804L9.1976 0.307202Z" fill="white"/>
</svg>
