<svg width="26" height="26" viewBox="0 0 26 26" fill="none" xmlns="http://www.w3.org/2000/svg">
<ellipse cx="7.83015" cy="3.41714" rx="2.83503" ry="2.80337" stroke="#062949" stroke-width="1.01272" stroke-linecap="round" stroke-linejoin="round"/>
<path d="M12.8894 15.0154C12.1635 14.5284 11.5448 13.901 11.0707 13.1711V23.3166C11.0707 24.2013 10.3454 24.9185 9.45067 24.9185C8.55596 24.9185 7.83065 24.2013 7.83065 23.3166C7.83065 24.2013 7.10535 24.9185 6.21064 24.9185C5.31593 24.9185 4.59062 24.2013 4.59062 23.3166V16.1058C4.59062 16.9905 3.86531 17.7077 2.9706 17.7077C2.07589 17.7077 1.35059 16.9905 1.35059 16.1058V12.902C1.35059 10.2478 3.5265 8.09619 6.21064 8.09619H9.07267C10.4541 8.09744 11.7697 8.67995 12.6907 9.69812" stroke="#062949" stroke-width="1.01272" stroke-linecap="round" stroke-linejoin="round"/>
<path d="M4.58887 16.1049V12.9019" stroke="#062949" stroke-width="1.01272" stroke-linecap="round" stroke-linejoin="round"/>
<path fill-rule="evenodd" clip-rule="evenodd" d="M20.2651 1.29691C20.5683 1.0384 21.0172 1.0384 21.3203 1.29691C24.1769 3.84266 25.7604 7.49933 25.6522 11.3004C25.5863 15.5419 24.895 19.7512 23.6002 23.7954C23.3877 24.462 22.7626 24.9154 22.0558 24.9157H19.5253C18.8185 24.9154 18.1934 24.462 17.9809 23.7954C16.6861 19.7512 15.9949 15.5419 15.9289 11.3004C15.8222 7.4987 17.4072 3.84204 20.2651 1.29691V1.29691Z" stroke="#062949" stroke-width="1.01272" stroke-linecap="round" stroke-linejoin="round"/>
<path d="M16.0664 14.3666L24.6148 5.91357" stroke="#062949" stroke-width="1.01272" stroke-linecap="round" stroke-linejoin="round"/>
<path d="M17.0107 20.2431L25.6467 11.7036" stroke="#062949" stroke-width="1.01272" stroke-linecap="round" stroke-linejoin="round"/>
</svg>
