<svg width="20" height="14" viewBox="0 0 20 14" fill="none" xmlns="http://www.w3.org/2000/svg">
<path fill-rule="evenodd" clip-rule="evenodd" d="M8.05078 9.66455V3.92676L13.0195 6.79581L8.05078 9.66455ZM19.1264 2.19293C18.9064 1.37019 18.2584 0.722036 17.4355 0.502103C15.944 0.102539 9.96316 0.102539 9.96316 0.102539C9.96316 0.102539 3.98246 0.102539 2.49094 0.502103C1.66804 0.722036 1.02005 1.37019 0.800112 2.19293C0.400391 3.6846 0.400391 6.79642 0.400391 6.79642C0.400391 6.79642 0.400391 9.90839 0.800112 11.3999C1.02005 12.2226 1.66804 12.871 2.49094 13.0907C3.98246 13.4905 9.96316 13.4905 9.96316 13.4905C9.96316 13.4905 15.944 13.4905 17.4355 13.0907C18.2584 12.871 18.9064 12.2226 19.1264 11.3999C19.5261 9.90839 19.5261 6.79642 19.5261 6.79642C19.5261 6.79642 19.5261 3.6846 19.1264 2.19293Z" fill="white"/>
</svg>
